<svg width="24" height="24" viewBox="0 0 24 24" fill="none" xmlns="http://www.w3.org/2000/svg">
<mask id="mask0_1121_7920" style="mask-type:alpha" maskUnits="userSpaceOnUse" x="0" y="0" width="24" height="24">
<rect width="24" height="24" fill="#D9D9D9"/>
</mask>
<g mask="url(#mask0_1121_7920)">
<path d="M2.78809 18.1729V14.8076C2.78809 14.1088 3.03009 13.5174 3.51409 13.0336C3.99809 12.5496 4.58942 12.3076 5.28809 12.3076H6.49959V5.9421C6.49959 5.52044 6.64734 5.16177 6.94284 4.8661C7.23834 4.5706 7.597 4.42285 8.01884 4.42285H15.9803C16.4022 4.42285 16.7608 4.5706 17.0563 4.8661C17.3518 5.16177 17.4996 5.52044 17.4996 5.9421V12.3076H18.7111C19.4098 12.3076 20.0011 12.5496 20.4851 13.0336C20.9691 13.5174 21.2111 14.1088 21.2111 14.8076V18.1729C21.2111 18.5947 21.0633 18.9534 20.7678 19.2489C20.4723 19.5444 20.1137 19.6921 19.6918 19.6921H4.30734C3.8855 19.6921 3.52684 19.5444 3.23134 19.2489C2.93584 18.9534 2.78809 18.5947 2.78809 18.1729ZM7.99959 12.3076H15.9996V5.92285H7.99959V12.3076ZM4.28809 18.1921H19.7111V14.8076C19.7111 14.5243 19.6153 14.2868 19.4236 14.0951C19.2319 13.9034 18.9944 13.8076 18.7111 13.8076H5.28809C5.00475 13.8076 4.76725 13.9034 4.57559 14.0951C4.38392 14.2868 4.28809 14.5243 4.28809 14.8076V18.1921ZM17.8073 16.6151C18.0907 16.6151 18.3282 16.5193 18.5198 16.3276C18.7115 16.1359 18.8073 15.8984 18.8073 15.6151C18.8073 15.3318 18.7115 15.0943 18.5198 14.9026C18.3282 14.7109 18.0907 14.6151 17.8073 14.6151C17.524 14.6151 17.2865 14.7109 17.0948 14.9026C16.9032 15.0943 16.8073 15.3318 16.8073 15.6151C16.8073 15.8984 16.9032 16.1359 17.0948 16.3276C17.2865 16.5193 17.524 16.6151 17.8073 16.6151Z" fill="#667085"/>
</g>
</svg>
