<svg width="24" height="24" viewBox="0 0 24 24" fill="none" xmlns="http://www.w3.org/2000/svg">
<mask id="mask0_1121_92" style="mask-type:alpha" maskUnits="userSpaceOnUse" x="0" y="0" width="24" height="24">
<rect width="24" height="24" fill="#D9D9D9"/>
</mask>
<g mask="url(#mask0_1121_92)">
<path d="M10.5497 18.1997L15.7247 11.9997H11.7247L12.4497 6.32471L7.82468 12.9997H11.2997L10.5497 18.1997ZM9.57667 14.4997H6.53443C6.19843 14.4997 5.95226 14.351 5.79593 14.0535C5.63943 13.7561 5.65868 13.4696 5.85368 13.194L12.4054 3.74221C12.5401 3.55371 12.7119 3.42479 12.9209 3.35546C13.1298 3.28629 13.347 3.29212 13.5727 3.37296C13.7983 3.45362 13.9634 3.59171 14.0679 3.78721C14.1724 3.98271 14.2112 4.19329 14.1842 4.41896L13.4324 10.4997H17.1632C17.5195 10.4997 17.7708 10.6594 17.9169 10.9787C18.0631 11.2979 18.0202 11.5953 17.7882 11.871L10.5439 20.5477C10.3991 20.7195 10.2222 20.8308 10.0132 20.8815C9.80418 20.932 9.60034 20.9117 9.40167 20.8207C9.20301 20.7297 9.04884 20.5906 8.93917 20.4035C8.82951 20.2163 8.78817 20.0099 8.81517 19.7842L9.57667 14.4997Z" fill="#667085"/>
</g>
</svg>
