<svg width="1329" height="1329" viewBox="0 0 1329 1329" fill="none" xmlns="http://www.w3.org/2000/svg">
<path d="M664.47 1328.94C574.796 1328.94 487.807 1311.34 405.77 1276.68C326.657 1243.21 255.598 1195.3 194.562 1134.33C133.586 1073.35 85.6765 1002.3 52.2054 923.129C17.6007 841.155 0 754.11 0 664.5C0 574.83 17.6007 487.845 52.2651 405.812C85.7362 326.702 133.646 255.646 194.622 194.613C255.598 133.64 326.657 85.7323 405.83 52.2627C487.807 17.5999 574.856 0 664.47 0C754.084 0 841.133 17.5999 923.17 52.2627C1002.28 85.7323 1073.34 133.64 1134.38 194.613C1195.35 255.586 1243.26 326.642 1276.73 405.812C1311.4 487.785 1329 574.83 1329 664.5C1329 754.17 1311.4 841.155 1276.73 923.188C1243.26 1002.3 1195.35 1073.35 1134.38 1134.39C1073.4 1195.36 1002.34 1243.27 923.17 1276.74C841.193 1311.4 754.144 1329 664.47 1329V1328.94ZM664.47 249.322C608.387 249.322 554.033 260.299 502.902 281.896C453.501 302.778 409.052 332.727 370.867 370.91C332.683 409.093 302.732 453.48 281.849 502.939C260.251 554.068 249.273 608.419 249.273 664.5C249.273 720.581 260.251 774.932 281.849 826.061C302.732 875.46 332.683 919.907 370.867 958.09C409.052 996.273 453.441 1026.22 502.902 1047.1C554.033 1068.7 608.387 1079.68 664.47 1079.68C720.554 1079.68 774.907 1068.7 826.038 1047.1C875.44 1026.22 919.889 996.273 958.073 958.09C996.258 919.907 1026.21 875.52 1047.09 826.061C1068.69 774.932 1079.67 720.581 1079.67 664.5C1079.67 608.419 1068.69 554.068 1047.09 502.939C1026.21 453.54 996.258 409.093 958.073 370.91C919.889 332.727 875.499 302.778 826.038 281.896C774.907 260.299 720.554 249.322 664.47 249.322Z" fill="url(#paint0_linear_1151_71706)"/>
<defs>
<linearGradient id="paint0_linear_1151_71706" x1="-21.5" y1="990" x2="1405.74" y2="697.885" gradientUnits="userSpaceOnUse">
<stop offset="0.05" stop-color="#8E0369" stop-opacity="0"/>
<stop offset="0.205" stop-color="#F97FE2" stop-opacity="0.1"/>
<stop offset="0.28" stop-color="#577AB8" stop-opacity="0.5"/>
<stop offset="0.561552" stop-color="#2DDF9E" stop-opacity="0.1"/>
</linearGradient>
</defs>
</svg>
