<svg width="88" height="88" viewBox="0 0 88 88" fill="none" xmlns="http://www.w3.org/2000/svg">
<g filter="url(#filter0_d_823_5739)">
<rect x="12" y="8" width="64" height="64" rx="12" fill="url(#paint0_linear_823_5739)" shape-rendering="crispEdges"/>
<rect x="13" y="9" width="62" height="62" rx="11" stroke="url(#paint1_linear_823_5739)" stroke-width="2" shape-rendering="crispEdges"/>
<path d="M41.5833 50.3328L50.2083 39.9995H43.5417L44.75 30.5412L37.0417 41.6662H42.8333L41.5833 50.3328ZM39.9617 44.1662H34.8912C34.3312 44.1662 33.921 43.9183 33.6604 43.4224C33.3996 42.9269 33.4317 42.4494 33.7567 41.9899L44.6762 26.237C44.9007 25.9228 45.1871 25.708 45.5354 25.5924C45.8835 25.4772 46.2455 25.4869 46.6217 25.6216C46.9978 25.756 47.2729 25.9862 47.4471 26.312C47.6212 26.6378 47.6858 26.9888 47.6408 27.3649L46.3879 37.4995H52.6058C53.1997 37.4995 53.6185 37.7656 53.8621 38.2978C54.1057 38.8298 54.0342 39.3255 53.6475 39.7849L41.5737 54.2462C41.3323 54.5326 41.0375 54.718 40.6892 54.8024C40.3408 54.8866 40.0011 54.8528 39.67 54.7012C39.3389 54.5495 39.0819 54.3177 38.8992 54.0058C38.7164 53.6938 38.6475 53.3498 38.6925 52.9737L39.9617 44.1662Z" fill="url(#paint2_linear_823_5739)"/>
</g>
<defs>
<filter id="filter0_d_823_5739" x="0" y="0" width="88" height="88" filterUnits="userSpaceOnUse" color-interpolation-filters="sRGB">
<feFlood flood-opacity="0" result="BackgroundImageFix"/>
<feColorMatrix in="SourceAlpha" type="matrix" values="0 0 0 0 0 0 0 0 0 0 0 0 0 0 0 0 0 0 127 0" result="hardAlpha"/>
<feOffset dy="4"/>
<feGaussianBlur stdDeviation="6"/>
<feComposite in2="hardAlpha" operator="out"/>
<feColorMatrix type="matrix" values="0 0 0 0 0.910235 0 0 0 0 0.996257 0 0 0 0 0.981153 0 0 0 1 0"/>
<feBlend mode="normal" in2="BackgroundImageFix" result="effect1_dropShadow_823_5739"/>
<feBlend mode="normal" in="SourceGraphic" in2="effect1_dropShadow_823_5739" result="shape"/>
</filter>
<linearGradient id="paint0_linear_823_5739" x1="65.5" y1="8" x2="143.5" y2="262" gradientUnits="userSpaceOnUse">
<stop stop-color="white"/>
<stop offset="1" stop-color="#BFBFBF"/>
</linearGradient>
<linearGradient id="paint1_linear_823_5739" x1="23" y1="8" x2="61.5" y2="78" gradientUnits="userSpaceOnUse">
<stop stop-color="#F8D6EF"/>
<stop offset="0.494741" stop-color="white" stop-opacity="0"/>
<stop offset="1" stop-color="#43ABAB"/>
</linearGradient>
<linearGradient id="paint2_linear_823_5739" x1="29.5" y1="28.9995" x2="23.1877" y2="53.7908" gradientUnits="userSpaceOnUse">
<stop stop-color="#8E0369"/>
<stop offset="0.477208" stop-color="#577AB8"/>
<stop offset="1" stop-color="#2DDF9E"/>
</linearGradient>
</defs>
</svg>
