<svg width="57" height="56" viewBox="0 0 57 56" fill="none" xmlns="http://www.w3.org/2000/svg">
<mask id="mask0_823_6202" style="mask-type:alpha" maskUnits="userSpaceOnUse" x="0" y="0" width="57" height="56">
<rect x="0.5" width="56" height="56" fill="#D9D9D9"/>
</mask>
<g mask="url(#mask0_823_6202)">
<path d="M27.0237 19.03L22.6703 14.6404C22.2522 14.2224 22.0432 13.7322 22.0432 13.1698C22.0432 12.6075 22.254 12.1154 22.6756 11.6934L27.0342 7.30384C27.4492 6.88579 27.9421 6.67676 28.513 6.67676C29.0842 6.67676 29.584 6.88773 30.0121 7.30967L34.3661 11.6993C34.7842 12.1173 34.9932 12.6075 34.9932 13.1698C34.9932 13.7322 34.7822 14.2243 34.3603 14.6463L30.0022 19.0358C29.5873 19.4539 29.0942 19.6629 28.5229 19.6629C27.952 19.6629 27.4523 19.452 27.0237 19.03ZM6.13164 45.9485C5.53392 45.9485 5.03303 45.7465 4.62897 45.3424C4.22492 44.938 4.02289 44.4371 4.02289 43.8398V37.1985C4.02289 36.0707 4.40497 35.1158 5.16914 34.3338C5.9333 33.5513 6.85983 33.1451 7.94872 33.1152H15.1418C15.8449 33.1152 16.5128 33.2873 17.1456 33.6314C17.7779 33.9756 18.2932 34.4557 18.6914 35.0717C19.8487 36.663 21.2837 37.9014 22.9964 38.7869C24.7091 39.6724 26.5436 40.1152 28.5001 40.1152C30.4823 40.1152 32.333 39.6724 34.0523 38.7869C35.7716 37.9014 37.198 36.663 38.3316 35.0717C38.7773 34.4557 39.3089 33.9756 39.9265 33.6314C40.544 33.2873 41.188 33.1152 41.8585 33.1152H49.0516C50.1642 33.1451 51.1004 33.5513 51.8603 34.3338C52.6202 35.1158 53.0001 36.0707 53.0001 37.1985V43.8398C53.0001 44.4371 52.7979 44.938 52.3935 45.3424C51.9894 45.7465 51.4885 45.9485 50.8908 45.9485H39.9422C39.3449 45.9485 38.844 45.7465 38.4396 45.3424C38.0355 44.938 37.8335 44.4371 37.8335 43.8398V40.4605C36.5023 41.4778 35.0438 42.2579 33.4579 42.8008C31.872 43.3437 30.2177 43.6152 28.4949 43.6152C26.8114 43.6152 25.1775 43.341 23.5931 42.7927C22.0092 42.2443 20.5411 41.4625 19.189 40.4471V43.8398C19.189 44.4371 18.9869 44.938 18.5829 45.3424C18.1788 45.7465 17.6779 45.9485 17.0802 45.9485H6.13164ZM10.5096 29.8847C8.74283 29.8847 7.23122 29.2564 5.97472 27.9999C4.71822 26.7434 4.08997 25.2318 4.08997 23.4651C4.08997 21.663 4.71822 20.1436 5.97472 18.9069C7.23122 17.6699 8.74283 17.0513 10.5096 17.0513C12.3113 17.0513 13.8307 17.6699 15.0677 18.9069C16.3048 20.1436 16.9233 21.663 16.9233 23.4651C16.9233 25.2318 16.3048 26.7434 15.0677 27.9999C13.8307 29.2564 12.3113 29.8847 10.5096 29.8847ZM46.4966 29.8847C44.7298 29.8847 43.2182 29.2564 41.9617 27.9999C40.7052 26.7434 40.077 25.2318 40.077 23.4651C40.077 21.663 40.7052 20.1436 41.9617 18.9069C43.2182 17.6699 44.7298 17.0513 46.4966 17.0513C48.2983 17.0513 49.8177 17.6699 51.0547 18.9069C52.2918 20.1436 52.9103 21.663 52.9103 23.4651C52.9103 25.2318 52.2918 26.7434 51.0547 27.9999C49.8177 29.2564 48.2983 29.8847 46.4966 29.8847Z" fill="#8E0369"/>
</g>
</svg>
