<svg width="57" height="56" viewBox="0 0 57 56" fill="none" xmlns="http://www.w3.org/2000/svg">
<mask id="mask0_823_6193" style="mask-type:alpha" maskUnits="userSpaceOnUse" x="0" y="0" width="57" height="56">
<rect x="0.5" width="56" height="56" fill="#D9D9D9"/>
</mask>
<g mask="url(#mask0_823_6193)">
<path d="M12.8846 45.4997C11.7059 45.4997 10.7082 45.0913 9.89157 44.2747C9.0749 43.458 8.66656 42.4603 8.66656 41.2816V25.6663C8.66656 22.9453 9.18709 20.3804 10.2281 17.9716C11.2692 15.5628 12.6902 13.4581 14.4911 11.6576C16.2917 9.85665 18.3964 8.43565 20.8051 7.39459C23.2139 6.35354 25.7788 5.83301 28.4999 5.83301C31.221 5.83301 33.7859 6.35354 36.1946 7.39459C38.6034 8.43565 40.7081 9.85665 42.5087 11.6576C44.3096 13.4581 45.7306 15.5628 46.7716 17.9716C47.8127 20.3804 48.3332 22.9453 48.3332 25.6663V47.5635C48.3332 48.7422 47.9249 49.7399 47.1082 50.5566C46.2916 51.3733 45.2939 51.7816 44.1152 51.7816H30.2499C29.7541 51.7816 29.3383 51.6138 29.0027 51.2782C28.6675 50.9426 28.4999 50.5268 28.4999 50.031C28.4999 49.5348 28.6675 49.1193 29.0027 48.7844C29.3383 48.4492 29.7541 48.2816 30.2499 48.2816H44.1152C44.3248 48.2816 44.4968 48.2143 44.6314 48.0798C44.766 47.9452 44.8332 47.7731 44.8332 47.5635V45.4997H40.7948C39.6348 45.4997 38.6417 45.0867 37.8157 44.2607C36.9897 43.4347 36.5767 42.4416 36.5767 41.2816V33.2048C36.5767 32.0447 36.9897 31.0517 37.8157 30.2257C38.6417 29.3997 39.6348 28.9867 40.7948 28.9867H44.8332V25.6663C44.8332 21.1552 43.2388 17.3052 40.0499 14.1163C36.861 10.9275 33.011 9.33301 28.4999 9.33301C23.9888 9.33301 20.1388 10.9275 16.9499 14.1163C13.761 17.3052 12.1666 21.1552 12.1666 25.6663V28.9867H16.205C17.365 28.9867 18.3581 29.3997 19.1841 30.2257C20.0101 31.0517 20.4231 32.0447 20.4231 33.2048V41.2816C20.4231 42.4416 20.0101 43.4347 19.1841 44.2607C18.3581 45.0867 17.365 45.4997 16.205 45.4997H12.8846Z" fill="#8E0369"/>
</g>
</svg>
