<svg width="57" height="56" viewBox="0 0 57 56" fill="none" xmlns="http://www.w3.org/2000/svg">
<mask id="mask0_823_6184" style="mask-type:alpha" maskUnits="userSpaceOnUse" x="0" y="0" width="57" height="56">
<rect x="0.5" width="56" height="56" fill="#D9D9D9"/>
</mask>
<g mask="url(#mask0_823_6184)">
<path d="M26.05 30.4863L22.263 26.7348C21.9398 26.4117 21.5397 26.2464 21.0625 26.239C20.5853 26.2316 20.1657 26.4088 19.8037 26.7704C19.4657 27.1088 19.2968 27.5186 19.2968 28.0001C19.2968 28.4815 19.4657 28.8914 19.8037 29.2298L24.5736 33.9997C24.9955 34.4212 25.4877 34.632 26.05 34.632C26.6123 34.632 27.1045 34.4212 27.5264 33.9997L37.1963 24.3298C37.5432 23.9825 37.7143 23.5763 37.7097 23.1112C37.7054 22.6461 37.5343 22.2325 37.1963 21.8704C36.8343 21.5088 36.4184 21.3219 35.9486 21.3098C35.4792 21.2978 35.0635 21.4728 34.7014 21.8348L26.05 30.4863ZM20.1228 49.4265L16.8963 44.0015L10.7935 42.6908C10.2701 42.5893 9.852 42.3141 9.53934 41.8653C9.22667 41.4166 9.10184 40.9305 9.16484 40.407L9.76159 34.1298L5.61117 29.382C5.25223 28.9993 5.07275 28.5387 5.07275 28.0001C5.07275 27.4615 5.25223 27.0008 5.61117 26.6182L9.76159 21.8704L9.16484 15.5932C9.10184 15.0697 9.22667 14.5836 9.53934 14.1348C9.852 13.6861 10.2701 13.4109 10.7935 13.3094L16.8963 11.9987L20.1228 6.57367C20.4039 6.11323 20.7868 5.7992 21.2713 5.63159C21.7559 5.46397 22.248 5.48945 22.7478 5.708L28.5 8.13992L34.2523 5.708C34.752 5.48945 35.2441 5.46397 35.7287 5.63159C36.2132 5.7992 36.5961 6.11323 36.8773 6.57367L40.1037 11.9987L46.2065 13.3094C46.7299 13.4109 47.148 13.6861 47.4607 14.1348C47.7733 14.5836 47.8982 15.0697 47.8352 15.5932L47.2384 21.8704L51.3888 26.6182C51.7478 27.0008 51.9272 27.4615 51.9272 28.0001C51.9272 28.5387 51.7478 28.9993 51.3888 29.382L47.2384 34.1298L47.8352 40.407C47.8982 40.9305 47.7733 41.4166 47.4607 41.8653C47.148 42.3141 46.7299 42.5893 46.2065 42.6908L40.1037 44.0015L36.8773 49.4265C36.5961 49.887 36.2132 50.201 35.7287 50.3686C35.2441 50.5362 34.752 50.5107 34.2523 50.2922L28.5 47.8603L22.7478 50.2922C22.248 50.5107 21.7559 50.5362 21.2713 50.3686C20.7868 50.201 20.4039 49.887 20.1228 49.4265Z" fill="#8E0369"/>
</g>
</svg>
