<svg width="21" height="20" viewBox="0 0 21 20" fill="none" xmlns="http://www.w3.org/2000/svg">
<mask id="mask0_1121_96" style="mask-type:alpha" maskUnits="userSpaceOnUse" x="0" y="0" width="21" height="20">
<rect x="0.5" width="20" height="20" fill="#D9D9D9"/>
</mask>
<g mask="url(#mask0_1121_96)">
<path d="M10.4959 12.7503C10.3959 12.7503 10.3022 12.733 10.2147 12.6982C10.1272 12.6635 10.0487 12.6114 9.97928 12.542L6.02803 8.59074C5.87053 8.43324 5.79525 8.2538 5.8022 8.05241C5.80914 7.85102 5.889 7.67394 6.04178 7.52116C6.19456 7.36838 6.37164 7.29199 6.57303 7.29199C6.77442 7.29199 6.9515 7.36838 7.10428 7.52116L10.5001 10.9378L13.9168 7.52116C14.0696 7.36838 14.2466 7.29546 14.448 7.30241C14.6494 7.30935 14.8265 7.38921 14.9793 7.54199C15.1321 7.69477 15.2084 7.87185 15.2084 8.07324C15.2084 8.27463 15.1297 8.45366 14.9722 8.61033L11.0209 12.542C10.9459 12.6114 10.8647 12.6635 10.7772 12.6982C10.6897 12.733 10.5959 12.7503 10.4959 12.7503Z" fill="#667085"/>
</g>
</svg>
