<svg width="24" height="24" viewBox="0 0 24 24" fill="none" xmlns="http://www.w3.org/2000/svg">
<path d="M11.9939 21.298C10.7171 21.298 9.51382 21.0546 8.38415 20.5677C7.25465 20.0807 6.26865 19.4161 5.42615 18.5737C4.58382 17.7312 3.91915 16.7452 3.43215 15.6157C2.94532 14.4861 2.7019 13.2828 2.7019 12.006C2.7019 10.7162 2.94532 9.50874 3.43215 8.38374C3.91915 7.25874 4.58382 6.27441 5.42615 5.43074C6.26865 4.58691 7.25465 3.92116 8.38415 3.4335C9.51382 2.94583 10.7171 2.702 11.9939 2.702C13.2837 2.702 14.4912 2.94591 15.6162 3.43374C16.7412 3.92158 17.7255 4.5875 18.5692 5.4315C19.413 6.27533 20.0787 7.25991 20.5664 8.38524C21.0541 9.51041 21.2979 10.7153 21.2979 12C21.2979 13.2808 21.0541 14.4861 20.5664 15.6157C20.0787 16.7452 19.413 17.7312 18.5692 18.5737C17.7255 19.4161 16.7412 20.0807 15.6162 20.5677C14.4912 21.0546 13.2837 21.298 11.9939 21.298ZM11.9999 19.9385C12.5204 19.2548 12.9571 18.5616 13.3099 17.8587C13.6629 17.1561 13.9506 16.3938 14.1729 15.572H9.83165C10.0605 16.4227 10.3497 17.1977 10.6994 17.8972C11.0492 18.5967 11.4827 19.2772 11.9999 19.9385ZM10.1847 19.6432C9.78782 19.0714 9.43215 18.4339 9.11765 17.7307C8.80332 17.0276 8.56074 16.308 8.3899 15.572H4.97965C5.50782 16.6323 6.22207 17.5137 7.1224 18.216C8.02274 18.9182 9.04349 19.3939 10.1847 19.6432ZM13.8152 19.6432C14.953 19.3971 15.9729 18.9221 16.8749 18.2182C17.7769 17.5144 18.4936 16.6323 19.0249 15.572H15.6147C15.4087 16.3143 15.1484 17.0372 14.8339 17.7405C14.5196 18.4437 14.18 19.0779 13.8152 19.6432ZM4.4114 14.173H8.09615C8.03332 13.7962 7.98782 13.4284 7.95965 13.0697C7.93132 12.7111 7.91715 12.3545 7.91715 12C7.91715 11.6455 7.93132 11.2889 7.95965 10.9302C7.98782 10.5716 8.03332 10.2038 8.09615 9.827H4.4114C4.3069 10.175 4.22907 10.531 4.1779 10.895C4.12657 11.259 4.1009 11.6273 4.1009 12C4.1009 12.3727 4.12657 12.741 4.1779 13.105C4.22907 13.469 4.3069 13.825 4.4114 14.173ZM9.50765 14.173H14.4972C14.5618 13.7962 14.6091 13.433 14.6389 13.0835C14.6687 12.7338 14.6837 12.3727 14.6837 12C14.6837 11.6273 14.6687 11.2662 14.6389 10.9165C14.6091 10.567 14.5618 10.2038 14.4972 9.827H9.50765C9.43965 10.2038 9.39074 10.567 9.3609 10.9165C9.33107 11.2662 9.31615 11.6273 9.31615 12C9.31615 12.3727 9.33107 12.7338 9.3609 13.0835C9.39074 13.433 9.43965 13.7962 9.50765 14.173ZM15.9037 14.173H19.5932C19.6945 13.825 19.7707 13.469 19.8219 13.105C19.8732 12.741 19.8989 12.3727 19.8989 12C19.8989 11.6273 19.8732 11.259 19.8219 10.895C19.7707 10.531 19.6945 10.175 19.5932 9.827H15.9037C15.9665 10.2038 16.012 10.5716 16.0402 10.9302C16.0685 11.2889 16.0827 11.6455 16.0827 12C16.0827 12.3545 16.0685 12.7111 16.0402 13.0697C16.012 13.4284 15.9665 13.7962 15.9037 14.173ZM15.6147 8.428H19.0249C18.4902 7.358 17.78 6.47666 16.8942 5.784C16.0082 5.0915 14.9818 4.6125 13.8152 4.347C14.212 4.95083 14.5652 5.59958 14.8749 6.29325C15.1846 6.98691 15.4312 7.6985 15.6147 8.428ZM9.83165 8.428H14.1729C13.9409 7.58683 13.6452 6.80775 13.2859 6.09075C12.9266 5.37358 12.4979 4.69716 11.9999 4.0615C11.5019 4.69716 11.0732 5.37358 10.7139 6.09075C10.3546 6.80775 10.0605 7.58683 9.83165 8.428ZM4.97965 8.428H8.3899C8.57024 7.6985 8.81524 6.98691 9.1249 6.29325C9.43457 5.59958 9.78782 4.95083 10.1847 4.347C9.01465 4.61566 7.98749 5.09633 7.10315 5.789C6.21899 6.48166 5.51115 7.36133 4.97965 8.428Z" fill="#1E1F4B"/>
</svg>
