<svg width="24" height="24" viewBox="0 0 24 24" fill="none" xmlns="http://www.w3.org/2000/svg">
<g clip-path="url(#clip0_847_6277)">
<path d="M23.9441 9.33517L23.9444 9.33509L23.9369 9.27358C23.9369 9.27253 23.9368 9.27172 23.9366 9.27067C23.9365 9.26978 23.9365 9.26897 23.9363 9.26808L23.9085 9.03676C23.9029 8.9903 23.8965 8.93737 23.8892 8.87699L23.8834 8.82891L23.8715 8.83037C23.5787 7.16542 22.7745 5.58538 21.529 4.23624C20.2893 2.89358 18.6786 1.83347 16.8713 1.17052C15.3227 0.602507 13.6796 0.314453 11.9878 0.314453C9.70374 0.314453 7.48551 0.85163 5.57297 1.86787C1.88493 3.82743 -0.290165 7.42928 0.0313151 11.0441C0.197721 12.9146 0.930522 14.6951 2.15056 16.1933C3.29889 17.6035 4.85231 18.7415 6.64279 19.4842C7.74369 19.9409 8.83221 20.1561 9.98475 20.3839L10.1197 20.4106C10.437 20.4734 10.5223 20.5597 10.5443 20.5939C10.5851 20.6573 10.5638 20.7824 10.5474 20.8513C10.5324 20.9148 10.5168 20.9782 10.5013 21.0416C10.3775 21.5463 10.2496 22.0681 10.3501 22.6435C10.4657 23.3049 10.8787 23.6843 11.4833 23.6844H11.4835C12.1338 23.6844 12.8739 23.2481 13.3637 22.9595L13.4291 22.921C14.5975 22.2349 15.6982 21.4609 16.5266 20.8632C18.3394 19.5554 20.394 18.0729 21.9344 16.1551C23.4856 14.2236 24.2163 11.7415 23.9441 9.33517ZM7.47393 12.9946H5.40341C5.09051 12.9946 4.83685 12.741 4.83685 12.4281V8.08211C4.83685 7.76921 5.09051 7.51555 5.40341 7.51555C5.71631 7.51555 5.96997 7.76921 5.96997 8.08211V11.8615H7.47385C7.78675 11.8615 8.04041 12.1152 8.04041 12.4281C8.04049 12.741 7.78683 12.9946 7.47393 12.9946ZM9.63389 12.4127C9.63389 12.7256 9.38023 12.9793 9.06733 12.9793C8.75443 12.9793 8.50078 12.7256 8.50078 12.4127V8.06673C8.50078 7.75383 8.75443 7.50018 9.06733 7.50018C9.38023 7.50018 9.63389 7.75383 9.63389 8.06673V12.4127ZM14.7551 12.4127C14.7551 12.6582 14.597 12.8757 14.3635 12.9516C14.3059 12.9703 14.2469 12.9793 14.1886 12.9793C14.0106 12.9793 13.8387 12.8953 13.73 12.7456L11.6898 9.93572V12.4128C11.6898 12.7257 11.4362 12.9793 11.1233 12.9793C10.8104 12.9793 10.5567 12.7257 10.5567 12.4128V8.19113C10.5567 7.94565 10.7148 7.72809 10.9483 7.65226C11.1819 7.5765 11.4376 7.65954 11.5818 7.85824L13.622 10.6681V8.06673C13.622 7.75383 13.8756 7.50018 14.1885 7.50018C14.5014 7.50018 14.7551 7.75383 14.7551 8.06673V12.4127ZM18.8834 12.8901H16.0794C15.7665 12.8901 15.5128 12.6364 15.5128 12.3235V10.1506V7.97754C15.5128 7.66464 15.7665 7.41098 16.0794 7.41098H18.7964C19.1093 7.41098 19.363 7.66464 19.363 7.97754C19.363 8.29044 19.1093 8.5441 18.7964 8.5441H16.6459V9.58405H18.3911C18.704 9.58405 18.9576 9.83771 18.9576 10.1506C18.9576 10.4635 18.704 10.7172 18.3911 10.7172H16.6459V11.757H18.8834C19.1963 11.757 19.45 12.0106 19.45 12.3235C19.45 12.6364 19.1963 12.8901 18.8834 12.8901Z" fill="white"/>
</g>
<defs>
<clipPath id="clip0_847_6277">
<rect width="24" height="24" fill="white"/>
</clipPath>
</defs>
</svg>
