<svg width="25" height="24" viewBox="0 0 25 24" fill="none" xmlns="http://www.w3.org/2000/svg">
<mask id="mask0_1121_873" style="mask-type:alpha" maskUnits="userSpaceOnUse" x="0" y="0" width="25" height="24">
<rect x="0.5" width="24" height="24" fill="#D9D9D9"/>
</mask>
<g mask="url(#mask0_1121_873)">
<path d="M12.5017 21.5C11.1877 21.5 9.95267 21.2507 8.7965 20.752C7.64033 20.2533 6.63467 19.5766 5.7795 18.7218C4.92433 17.8669 4.24725 16.8617 3.74825 15.706C3.24942 14.5503 3 13.3156 3 12.0017C3 10.6877 3.24933 9.45267 3.748 8.2965C4.24667 7.14033 4.92342 6.13467 5.77825 5.2795C6.63308 4.42433 7.63833 3.74725 8.794 3.24825C9.94967 2.74942 11.1844 2.5 12.4983 2.5C13.8123 2.5 15.0473 2.74933 16.2035 3.248C17.3597 3.74667 18.3653 4.42342 19.2205 5.27825C20.0757 6.13308 20.7528 7.13833 21.2518 8.294C21.7506 9.44967 22 10.6844 22 11.9983C22 13.3123 21.7507 14.5473 21.252 15.7035C20.7533 16.8597 20.0766 17.8653 19.2218 18.7205C18.3669 19.5757 17.3617 20.2528 16.206 20.7518C15.0503 21.2506 13.8156 21.5 12.5017 21.5ZM12.5 20C14.7333 20 16.625 19.225 18.175 17.675C19.725 16.125 20.5 14.2333 20.5 12C20.5 9.76667 19.725 7.875 18.175 6.325C16.625 4.775 14.7333 4 12.5 4C10.2667 4 8.375 4.775 6.825 6.325C5.275 7.875 4.5 9.76667 4.5 12C4.5 14.2333 5.275 16.125 6.825 17.675C8.375 19.225 10.2667 20 12.5 20ZM12.475 18.8078C12.657 18.8078 12.8162 18.7394 12.9528 18.6028C13.0894 18.4663 13.1578 18.307 13.1578 18.125V17.5962C13.9334 17.4911 14.6357 17.1997 15.2645 16.722C15.8933 16.2445 16.2078 15.5205 16.2078 14.55C16.2078 13.85 16.0013 13.2308 15.5885 12.6923C15.1757 12.1539 14.3692 11.6681 13.1692 11.2348C12.1179 10.8758 11.4198 10.5648 11.075 10.302C10.7302 10.0392 10.5578 9.67183 10.5578 9.2C10.5578 8.72817 10.7343 8.34483 11.0875 8.05C11.4407 7.75517 11.9282 7.60775 12.55 7.60775C12.9218 7.60775 13.2472 7.67725 13.526 7.81625C13.8048 7.95542 14.0404 8.141 14.2327 8.373C14.3546 8.52183 14.4956 8.62567 14.6557 8.6845C14.8161 8.7435 14.9678 8.741 15.111 8.677C15.3065 8.6 15.4401 8.46858 15.5117 8.28275C15.5834 8.09675 15.5654 7.92625 15.4578 7.77125C15.1911 7.39425 14.8603 7.08042 14.4653 6.82975C14.0704 6.57908 13.6512 6.43708 13.2078 6.40375V5.875C13.2078 5.693 13.1394 5.53375 13.0027 5.39725C12.8662 5.26058 12.707 5.19225 12.525 5.19225C12.343 5.19225 12.1838 5.26058 12.0473 5.39725C11.9106 5.53375 11.8422 5.693 11.8422 5.875V6.40375C10.9897 6.56792 10.335 6.91375 9.878 7.44125C9.42083 7.96892 9.19225 8.55517 9.19225 9.2C9.19225 9.95133 9.41983 10.5558 9.875 11.0135C10.3302 11.4712 11.0718 11.8846 12.1 12.2537C13.1628 12.6436 13.8888 12.9933 14.278 13.303C14.667 13.6125 14.8615 14.0282 14.8615 14.55C14.8615 15.177 14.6353 15.6324 14.1827 15.9163C13.7301 16.2003 13.2192 16.3422 12.65 16.3422C12.175 16.3422 11.7457 16.2237 11.362 15.9865C10.9783 15.7493 10.657 15.4064 10.398 14.9578C10.2968 14.7821 10.1603 14.6638 9.9885 14.603C9.81667 14.542 9.6485 14.5439 9.484 14.6088C9.30667 14.6736 9.17683 14.7967 9.0945 14.978C9.01233 15.1593 9.01158 15.3327 9.09225 15.498C9.37175 16.0583 9.7365 16.5064 10.1865 16.8422C10.6365 17.1783 11.1718 17.4129 11.7923 17.5462V18.125C11.7923 18.307 11.8606 18.4663 11.9973 18.6028C12.1338 18.7394 12.293 18.8078 12.475 18.8078Z" fill="#667085"/>
</g>
</svg>
