<svg width="75" height="74" viewBox="0 0 75 74" fill="none" xmlns="http://www.w3.org/2000/svg">
<mask id="mask0_823_6192" style="mask-type:alpha" maskUnits="userSpaceOnUse" x="9" y="9" width="57" height="56">
<rect x="9.5" y="9" width="56" height="56" fill="#D9D9D9"/>
</mask>
<g mask="url(#mask0_823_6192)">
<path d="M21.8846 54.4997C20.7059 54.4997 19.7082 54.0913 18.8916 53.2747C18.0749 52.458 17.6666 51.4603 17.6666 50.2816V34.6663C17.6666 31.9453 18.1871 29.3804 19.2281 26.9716C20.2692 24.5628 21.6902 22.4581 23.4911 20.6576C25.2917 18.8566 27.3964 17.4356 29.8051 16.3946C32.2139 15.3535 34.7788 14.833 37.4999 14.833C40.221 14.833 42.7859 15.3535 45.1946 16.3946C47.6034 17.4356 49.7081 18.8566 51.5087 20.6576C53.3096 22.4581 54.7306 24.5628 55.7716 26.9716C56.8127 29.3804 57.3332 31.9453 57.3332 34.6663V56.5635C57.3332 57.7422 56.9249 58.7399 56.1082 59.5566C55.2916 60.3733 54.2939 60.7816 53.1152 60.7816H39.2499C38.7541 60.7816 38.3383 60.6138 38.0027 60.2782C37.6675 59.9426 37.4999 59.5268 37.4999 59.031C37.4999 58.5348 37.6675 58.1193 38.0027 57.7844C38.3383 57.4492 38.7541 57.2816 39.2499 57.2816H53.1152C53.3248 57.2816 53.4968 57.2143 53.6314 57.0798C53.766 56.9452 53.8332 56.7731 53.8332 56.5635V54.4997H49.7948C48.6348 54.4997 47.6417 54.0867 46.8157 53.2607C45.9897 52.4347 45.5767 51.4416 45.5767 50.2816V42.2048C45.5767 41.0447 45.9897 40.0517 46.8157 39.2257C47.6417 38.3997 48.6348 37.9867 49.7948 37.9867H53.8332V34.6663C53.8332 30.1552 52.2388 26.3052 49.0499 23.1163C45.861 19.9275 42.011 18.333 37.4999 18.333C32.9888 18.333 29.1388 19.9275 25.9499 23.1163C22.761 26.3052 21.1666 30.1552 21.1666 34.6663V37.9867H25.205C26.365 37.9867 27.3581 38.3997 28.1841 39.2257C29.0101 40.0517 29.4231 41.0447 29.4231 42.2048V50.2816C29.4231 51.4416 29.0101 52.4347 28.1841 53.2607C27.3581 54.0867 26.365 54.4997 25.205 54.4997H21.8846Z" fill="#8E0369"/>
</g>
</svg>
