<svg width="75" height="74" viewBox="0 0 75 74" fill="none" xmlns="http://www.w3.org/2000/svg">
<mask id="mask0_823_6183" style="mask-type:alpha" maskUnits="userSpaceOnUse" x="9" y="9" width="57" height="56">
<rect x="9.5" y="9" width="56" height="56" fill="#D9D9D9"/>
</mask>
<g mask="url(#mask0_823_6183)">
<path d="M35.05 39.4863L31.263 35.7348C30.9398 35.4117 30.5397 35.2464 30.0625 35.239C29.5853 35.2316 29.1657 35.4088 28.8037 35.7704C28.4657 36.1088 28.2968 36.5186 28.2968 37.0001C28.2968 37.4815 28.4657 37.8914 28.8037 38.2298L33.5736 42.9997C33.9955 43.4212 34.4877 43.632 35.05 43.632C35.6123 43.632 36.1045 43.4212 36.5264 42.9997L46.1963 33.3298C46.5432 32.9825 46.7143 32.5763 46.7097 32.1112C46.7054 31.6461 46.5343 31.2325 46.1963 30.8704C45.8343 30.5088 45.4184 30.3219 44.9486 30.3098C44.4792 30.2978 44.0635 30.4728 43.7014 30.8348L35.05 39.4863ZM29.1228 58.4265L25.8963 53.0015L19.7935 51.6908C19.2701 51.5893 18.852 51.3141 18.5393 50.8653C18.2267 50.4166 18.1018 49.9305 18.1648 49.407L18.7616 43.1298L14.6112 38.382C14.2522 37.9993 14.0728 37.5387 14.0728 37.0001C14.0728 36.4615 14.2522 36.0008 14.6112 35.6182L18.7616 30.8704L18.1648 24.5932C18.1018 24.0697 18.2267 23.5836 18.5393 23.1348C18.852 22.6861 19.2701 22.4109 19.7935 22.3094L25.8963 20.9987L29.1228 15.5737C29.4039 15.1132 29.7868 14.7992 30.2713 14.6316C30.7559 14.464 31.248 14.4894 31.7478 14.708L37.5 17.1399L43.2523 14.708C43.752 14.4894 44.2441 14.464 44.7287 14.6316C45.2132 14.7992 45.5961 15.1132 45.8773 15.5737L49.1037 20.9987L55.2065 22.3094C55.7299 22.4109 56.148 22.6861 56.4607 23.1348C56.7733 23.5836 56.8982 24.0697 56.8352 24.5932L56.2384 30.8704L60.3888 35.6182C60.7478 36.0008 60.9272 36.4615 60.9272 37.0001C60.9272 37.5387 60.7478 37.9993 60.3888 38.382L56.2384 43.1298L56.8352 49.407C56.8982 49.9305 56.7733 50.4166 56.4607 50.8653C56.148 51.3141 55.7299 51.5893 55.2065 51.6908L49.1037 53.0015L45.8773 58.4265C45.5961 58.887 45.2132 59.201 44.7287 59.3686C44.2441 59.5362 43.752 59.5107 43.2523 59.2922L37.5 56.8603L31.7478 59.2922C31.248 59.5107 30.7559 59.5362 30.2713 59.3686C29.7868 59.201 29.4039 58.887 29.1228 58.4265Z" fill="#8E0369"/>
</g>
</svg>
