<svg width="75" height="74" viewBox="0 0 75 74" fill="none" xmlns="http://www.w3.org/2000/svg">
<mask id="mask0_823_6174" style="mask-type:alpha" maskUnits="userSpaceOnUse" x="9" y="9" width="57" height="56">
<rect x="9.5" y="9" width="56" height="56" fill="#D9D9D9"/>
</mask>
<g mask="url(#mask0_823_6174)">
<path d="M57.7818 28.8335C58.8917 28.8335 59.8721 29.2591 60.723 30.1104C61.5743 30.9613 61.9999 31.9417 61.9999 33.0515V36.8205C61.9999 37.0627 61.9744 37.3245 61.9235 37.6056C61.8726 37.8868 61.7963 38.1487 61.6948 38.3914L55.0087 54.1682C54.6738 54.916 54.1131 55.5472 53.3263 56.0617C52.5396 56.5762 51.7214 56.8335 50.8717 56.8335H31.9804C30.8169 56.8335 29.8231 56.4214 28.999 55.5974C28.1749 54.7729 27.7629 53.7789 27.7629 52.6154V30.5788C27.7629 30.0165 27.878 29.4759 28.1083 28.9571C28.3385 28.438 28.6451 27.9869 29.0282 27.6038L41.3721 15.3404C41.836 14.9009 42.3731 14.6303 42.9833 14.5284C43.5934 14.4269 44.1781 14.5181 44.7373 14.802C45.2969 15.0862 45.7008 15.5035 45.9489 16.0538C46.1974 16.6045 46.2468 17.1894 46.0971 17.8085L43.5841 28.8335H57.7818ZM19.5513 56.8335C18.3878 56.8335 17.3938 56.4214 16.5693 55.5974C15.7453 54.7729 15.3333 53.7789 15.3333 52.6154V33.0515C15.3333 31.888 15.7453 30.894 16.5693 30.0695C17.3938 29.2455 18.3878 28.8335 19.5513 28.8335H20.0448C21.2084 28.8335 22.2024 29.2455 23.0268 30.0695C23.8509 30.894 24.2629 31.888 24.2629 33.0515V52.6381C24.2629 53.8017 23.8509 54.7918 23.0268 55.6085C22.2024 56.4251 21.2084 56.8335 20.0448 56.8335H19.5513Z" fill="#8E0369"/>
</g>
</svg>
